<?xml version="1.0" standalone="no"?>
<!DOCTYPE svg PUBLIC "-//W3C//DTD SVG 20010904//EN"
 "http://www.w3.org/TR/2001/REC-SVG-20010904/DTD/svg10.dtd">
<svg version="1.0" xmlns="http://www.w3.org/2000/svg"
 width="1024.000000pt" height="1024.000000pt" viewBox="0 0 1024.000000 1024.000000"
 preserveAspectRatio="xMidYMid meet">
<metadata>
Created by potrace 1.11, written by Peter Selinger 2001-2013
</metadata>
<g transform="translate(0.000000,1024.000000) scale(0.100000,-0.100000)"
fill="#000000" stroke="none">
<path d="M0 9818 c0 -248 4 -418 9 -413 8 9 505 744 546 808 l17 27 -286 0
-286 0 0 -422z"/>
<path d="M967 8809 l-967 -1430 2 -795 3 -794 1495 2212 c822 1216 1499 2217
1503 2225 7 11 -85 13 -531 13 l-538 0 -967 -1431z"/>
<path d="M4058 9777 c-172 -255 -1046 -1548 -1943 -2875 l-1630 -2412 -242 0
-243 0 0 -2245 0 -2245 5120 0 5120 0 0 2257 0 2256 -675 -6 c-371 -4 -675 -4
-675 -1 0 5 553 825 1237 1836 l113 168 0 785 c0 432 -4 785 -9 785 -4 0 -552
-805 -1217 -1789 l-1209 -1789 -530 -7 c-291 -3 -598 -5 -682 -3 l-152 3 1900
2810 1899 2810 0 63 0 62 -497 0 -498 0 -2195 -3249 -2195 -3250 -370 370
-370 369 -58 0 c-31 0 -57 2 -57 5 0 2 873 1296 1940 2875 1067 1578 1940
2872 1940 2875 0 3 -242 5 -537 4 l-538 0 -1945 -2880 -1945 -2879 -678 0
c-540 0 -677 3 -671 13 10 15 3640 5388 3781 5595 l103 152 -539 0 -540 0
-313 -463z m1332 -6667 c145 -184 269 -342 277 -351 12 -15 -19 -83 -269 -583
l-283 -565 -167 327 c-92 180 -226 440 -298 579 l-129 252 297 345 c163 190
300 342 303 338 3 -4 124 -158 269 -342z"/>
</g>
</svg>
